REM DIRINDEX 1\5,1\2\7,1\2\8,1\3\9,1\3\10,1\4\11,1\4\12,1\6\13,1\6\14
REM DIRNAME folder01,folder02,folder03,folder04,folder05,folder06,folder07,folder08,folder09,folder10,folder11,folder12,folder13,folder14
TITLE ""
FILE "Disk3Track14.mp3" MP3
  TRACK 01 AUDIO
    TITLE "13:cjc067_1460"
    INDEX 01 00:00:00
  TRACK 02 AUDIO
    TITLE "0:"
    INDEX 01 00:01:13
  TRACK 03 AUDIO
    TITLE "14:cjc067_1461"
    INDEX 01 00:02:12
  TRACK 04 AUDIO
    TITLE "0:"
    INDEX 01 00:04:01
  TRACK 05 AUDIO
    TITLE "14:cjc067_1462"
    INDEX 01 00:05:07
  TRACK 06 AUDIO
    TITLE "0:"
    INDEX 01 00:07:27
  TRACK 07 AUDIO
    TITLE "14:cjc067_1463"
    INDEX 01 00:08:34
  TRACK 08 AUDIO
    TITLE "0:"
    INDEX 01 00:11:13
  TRACK 09 AUDIO
    TITLE "14:cjc067_1464"
    INDEX 01 00:12:18
  TRACK 10 AUDIO
    TITLE "0:"
    INDEX 01 00:14:35
  TRACK 11 AUDIO
    TITLE "14:cjc067_1465"
    INDEX 01 00:15:38
  TRACK 12 AUDIO
    TITLE "0:"
    INDEX 01 00:19:03
  TRACK 13 AUDIO
    TITLE "14:cjc067_1466"
    INDEX 01 00:20:08
  TRACK 14 AUDIO
    TITLE "0:"
    INDEX 01 00:22:48
  TRACK 15 AUDIO
    TITLE "14:cjc067_1467"
    INDEX 01 00:23:53
  TRACK 16 AUDIO
    TITLE "0:"
    INDEX 01 00:27:18
  TRACK 17 AUDIO
    TITLE "14:cjc067_1468"
    INDEX 01 00:28:23
  TRACK 18 AUDIO
    TITLE "0:"
    INDEX 01 00:31:16
  TRACK 19 AUDIO
    TITLE "14:cjc067_1469"
    INDEX 01 00:32:21
  TRACK 20 AUDIO
    TITLE "0:"
    INDEX 01 00:35:25
  TRACK 21 AUDIO
    TITLE "14:cjc067_1470"
    INDEX 01 00:36:31
  TRACK 22 AUDIO
    TITLE "0:"
    INDEX 01 00:39:15
  TRACK 23 AUDIO
    TITLE "14:cjc067_1471"
    INDEX 01 00:40:21
  TRACK 24 AUDIO
    TITLE "0:"
    INDEX 01 00:43:13
  TRACK 25 AUDIO
    TITLE "14:cjc067_1472"
    INDEX 01 00:44:18
  TRACK 26 AUDIO
    TITLE "0:"
    INDEX 01 00:46:64
  TRACK 27 AUDIO
    TITLE "14:cjc067_1473"
    INDEX 01 00:47:68
  TRACK 28 AUDIO
    TITLE "0:"
    INDEX 01 00:52:06
  TRACK 29 AUDIO
    TITLE "14:cjc067_1474"
    INDEX 01 00:53:11
  TRACK 30 AUDIO
    TITLE "0:"
    INDEX 01 00:56:74
  TRACK 31 AUDIO
    TITLE "14:cjc067_1475"
    INDEX 01 00:58:05
  TRACK 32 AUDIO
    TITLE "0:"
    INDEX 01 01:01:05
  TRACK 33 AUDIO
    TITLE "14:cjc067_1476"
    INDEX 01 01:02:10
  TRACK 34 AUDIO
    TITLE "0:"
    INDEX 01 01:04:35
  TRACK 35 AUDIO
    TITLE "14:cjc067_1477"
    INDEX 01 01:05:40
  TRACK 36 AUDIO
    TITLE "0:"
    INDEX 01 01:09:03
  TRACK 37 AUDIO
    TITLE "14:cjc067_1478"
    INDEX 01 01:10:08
  TRACK 38 AUDIO
    TITLE "0:"
    INDEX 01 01:13:28
  TRACK 39 AUDIO
    TITLE "14:cjc067_1479"
    INDEX 01 01:14:33
  TRACK 40 AUDIO
    TITLE "0:"
    INDEX 01 01:17:47
  TRACK 41 AUDIO
    TITLE "14:cjc067_1480"
    INDEX 01 01:18:54
  TRACK 42 AUDIO
    TITLE "0:"
    INDEX 01 01:21:12
  TRACK 43 AUDIO
    TITLE "14:cjc067_1481"
    INDEX 01 01:22:19
  TRACK 44 AUDIO
    TITLE "0:"
    INDEX 01 01:25:29
  TRACK 45 AUDIO
    TITLE "14:cjc067_1482"
    INDEX 01 01:26:34
  TRACK 46 AUDIO
    TITLE "0:"
    INDEX 01 01:29:25
  TRACK 47 AUDIO
    TITLE "14:cjc067_1483"
    INDEX 01 01:30:28
  TRACK 48 AUDIO
    TITLE "0:"
    INDEX 01 01:33:05
  TRACK 49 AUDIO
    TITLE "14:cjc067_1484"
    INDEX 01 01:34:10
  TRACK 50 AUDIO
    TITLE "0:"
    INDEX 01 01:36:54
  TRACK 51 AUDIO
    TITLE "14:cjc067_1485"
    INDEX 01 01:37:62
  TRACK 52 AUDIO
    TITLE "0:"
    INDEX 01 01:40:17
  TRACK 53 AUDIO
    TITLE "14:cjc067_1486"
    INDEX 01 01:41:20
  TRACK 54 AUDIO
    TITLE "0:"
    INDEX 01 01:43:58
  TRACK 55 AUDIO
    TITLE "14:cjc067_1487"
    INDEX 01 01:44:64
  TRACK 56 AUDIO
    TITLE "0:"
    INDEX 01 01:47:21
  TRACK 57 AUDIO
    TITLE "14:cjc067_1488"
    INDEX 01 01:48:26
  TRACK 58 AUDIO
    TITLE "0:"
    INDEX 01 01:51:68
  TRACK 59 AUDIO
    TITLE "14:cjc067_1489"
    INDEX 01 01:52:73
  TRACK 60 AUDIO
    TITLE "0:"
    INDEX 01 01:56:14
  TRACK 61 AUDIO
    TITLE "14:cjc067_1490"
    INDEX 01 01:57:11
  TRACK 62 AUDIO
    TITLE "0:"
    INDEX 01 02:00:25
  TRACK 63 AUDIO
    TITLE "14:cjc067_1491"
    INDEX 01 02:01:33
  TRACK 64 AUDIO
    TITLE "0:"
    INDEX 01 02:04:43
  TRACK 65 AUDIO
    TITLE "14:cjc067_1492"
    INDEX 01 02:05:48
  TRACK 66 AUDIO
    TITLE "0:"
    INDEX 01 02:09:32
  TRACK 67 AUDIO
    TITLE "14:cjc067_1493"
    INDEX 01 02:10:38
  TRACK 68 AUDIO
    TITLE "0:"
    INDEX 01 02:13:50
